<svg width="24" height="24" viewBox="0 0 24 24" fill="none" xmlns="http://www.w3.org/2000/svg">
<path d="M15.1258 21.1004L6.7008 12.7004C6.6008 12.6004 6.5298 12.4921 6.4878 12.3754C6.4458 12.2587 6.42513 12.1337 6.4258 12.0004C6.4258 11.8671 6.44646 11.7421 6.4878 11.6254C6.52913 11.5087 6.60013 11.4004 6.7008 11.3004L15.1258 2.87539C15.3591 2.64206 15.6508 2.52539 16.0008 2.52539C16.3508 2.52539 16.6508 2.65039 16.9008 2.90039C17.1508 3.15039 17.2758 3.44206 17.2758 3.77539C17.2758 4.10872 17.1508 4.40039 16.9008 4.65039L9.5508 12.0004L16.9008 19.3504C17.1341 19.5837 17.2508 19.8714 17.2508 20.2134C17.2508 20.5554 17.1258 20.8511 16.8758 21.1004C16.6258 21.3504 16.3341 21.4754 16.0008 21.4754C15.6675 21.4754 15.3758 21.3504 15.1258 21.1004Z" fill="white"/>
</svg>
