<svg width="24" height="24" viewBox="0 0 24 24" fill="none" xmlns="http://www.w3.org/2000/svg">
<path d="M8.8742 21.1004L17.2992 12.7004C17.3992 12.6004 17.4702 12.4921 17.5122 12.3754C17.5542 12.2587 17.5749 12.1337 17.5742 12.0004C17.5742 11.8671 17.5535 11.7421 17.5122 11.6254C17.4709 11.5087 17.3999 11.4004 17.2992 11.3004L8.8742 2.87539C8.64087 2.64206 8.3492 2.52539 7.9992 2.52539C7.6492 2.52539 7.3492 2.65039 7.0992 2.90039C6.8492 3.15039 6.7242 3.44206 6.7242 3.77539C6.7242 4.10872 6.8492 4.40039 7.0992 4.65039L14.4492 12.0004L7.0992 19.3504C6.86587 19.5837 6.7492 19.8714 6.7492 20.2134C6.7492 20.5554 6.8742 20.8511 7.1242 21.1004C7.3742 21.3504 7.66587 21.4754 7.9992 21.4754C8.33254 21.4754 8.6242 21.3504 8.8742 21.1004Z" fill="white"/>
</svg>
