<svg width="21" height="21" viewBox="0 0 21 21" fill="none" xmlns="http://www.w3.org/2000/svg">
<path d="M13.6514 10.4709H6.50854" stroke="white" stroke-linecap="round" stroke-linejoin="round"/>
<path d="M10.6753 7.49536L13.6515 10.4716L10.6753 13.4477" stroke="white" stroke-linecap="round" stroke-linejoin="round"/>
<path d="M18.4106 10.471C18.4106 8.2609 17.5326 6.14128 15.9698 4.57848C14.407 3.01566 12.2874 2.1377 10.0772 2.1377C7.8671 2.1377 5.74748 3.01566 4.18468 4.57848C2.62188 6.14128 1.7439 8.2609 1.7439 10.471C1.7439 12.6812 2.62188 14.8008 4.18468 16.3636C5.74748 17.9264 7.8671 18.8044 10.0772 18.8044C12.2874 18.8044 14.407 17.9264 15.9698 16.3636C17.5326 14.8008 18.4106 12.6812 18.4106 10.471Z" stroke="white" stroke-linecap="round" stroke-linejoin="round"/>
</svg>
