<?xml version="1.0" standalone="no"?>
<!DOCTYPE svg PUBLIC "-//W3C//DTD SVG 20010904//EN"
 "http://www.w3.org/TR/2001/REC-SVG-20010904/DTD/svg10.dtd">
<svg version="1.0" xmlns="http://www.w3.org/2000/svg"
 width="618.000000pt" height="417.000000pt" viewBox="0 0 618.000000 417.000000"
 preserveAspectRatio="xMidYMid meet">

<g transform="translate(0.000000,417.000000) scale(0.100000,-0.100000)"
fill="#000000" stroke="none">
<path d="M628 4073 c-53 -54 -216 -224 -362 -378 l-266 -280 212 -207 213
-207 58 59 57 58 0 -1499 0 -1499 295 0 295 0 0 2025 0 2025 -204 0 -203 0
-95 -97z"/>
<path d="M4005 4143 c-27 -2 -106 -13 -175 -24 -630 -104 -1185 -517 -1470
-1094 -136 -273 -197 -520 -207 -830 -33 -988 639 -1835 1617 -2040 154 -33
466 -45 627 -26 871 107 1564 746 1737 1603 183 905 -270 1814 -1105 2218
-317 153 -663 218 -1024 193z m445 -618 c173 -38 337 -106 475 -196 332 -215
546 -532 632 -930 27 -129 25 -419 -6 -559 -80 -372 -292 -684 -606 -892 -162
-108 -306 -168 -498 -210 -146 -31 -418 -31 -564 0 -584 126 -1016 571 -1120
1155 -22 125 -21 351 2 482 91 522 467 952 975 1113 52 16 129 35 170 42 41 6
82 13 90 15 43 10 382 -5 450 -20z"/>
</g>
</svg>
