<svg width="15" height="14" viewBox="0 0 15 14" fill="none" xmlns="http://www.w3.org/2000/svg">
<path d="M13.6833 14C12.0111 14 10.3811 13.6272 8.79344 12.8816C7.20574 12.1359 5.79926 11.1507 4.574 9.926C3.34874 8.70126 2.36356 7.29478 1.61844 5.70656C0.873333 4.11833 0.500519 2.48837 0.5 0.816667C0.5 0.583333 0.577778 0.388889 0.733333 0.233333C0.888889 0.0777777 1.08333 0 1.31667 0L4.46667 0C4.64815 0 4.81019 0.0583333 4.95278 0.175C5.09537 0.291667 5.17963 0.440741 5.20556 0.622222L5.71111 3.34444C5.73704 3.52593 5.73367 3.69133 5.701 3.84067C5.66833 3.99 5.59393 4.12274 5.47778 4.23889L3.61111 6.14444C4.15556 7.07778 4.83611 7.95278 5.65278 8.76944C6.46944 9.58611 7.37037 10.2926 8.35556 10.8889L10.1833 9.06111C10.3 8.94444 10.4524 8.85707 10.6407 8.799C10.8289 8.74093 11.0135 8.72459 11.1944 8.75L13.8778 9.29445C14.0593 9.33333 14.2083 9.42096 14.325 9.55733C14.4417 9.6937 14.5 9.85237 14.5 10.0333V13.1833C14.5 13.4167 14.4222 13.6111 14.2667 13.7667C14.1111 13.9222 13.9167 14 13.6833 14Z" fill="black"/>
</svg>
