<svg width="18" height="18" viewBox="0 0 18 18" fill="none" xmlns="http://www.w3.org/2000/svg">
<path d="M17.0801 9.16089C17.0801 13.7836 13.3326 17.531 8.70996 17.531C4.08728 17.531 0.339844 13.7836 0.339844 9.16089C0.339844 4.53821 4.08728 0.790774 8.70996 0.790774C13.3326 0.790774 17.0801 4.53821 17.0801 9.16089Z" fill="#31AF40"/>
<path fill-rule="evenodd" clip-rule="evenodd" d="M10.9284 12.8579H5.01318C5.01318 13.6746 5.67529 14.3367 6.49202 14.3367H10.9284C11.7452 14.3367 12.4073 13.6746 12.4073 12.8579V6.78522C12.4073 6.75545 12.3831 6.73135 12.3534 6.73135H10.9823C10.9526 6.73135 10.9284 6.75545 10.9284 6.78522V12.8579ZM10.9284 3.98498C11.7452 3.98498 12.4073 4.64705 12.4073 5.46378H6.49202V11.5364C6.49202 11.5662 6.46788 11.5903 6.43815 11.5903H5.06705C5.03732 11.5903 5.01318 11.5662 5.01318 11.5364V5.46378C5.01318 4.64705 5.67529 3.98498 6.49202 3.98498H10.9284Z" fill="white"/>
</svg>
