<svg width="18" height="18" viewBox="0 0 18 18" fill="none" xmlns="http://www.w3.org/2000/svg">
<path d="M17.3734 9.28327C17.3734 13.8783 13.6484 17.6033 9.0534 17.6033C4.45839 17.6033 0.733398 13.8783 0.733398 9.28327C0.733398 4.68827 4.45839 0.963276 9.0534 0.963276C13.6484 0.963276 17.3734 4.68827 17.3734 9.28327Z" fill="black"/>
<path fill-rule="evenodd" clip-rule="evenodd" d="M11.2587 12.9583H5.37891C5.37891 13.7701 6.03705 14.4282 6.84888 14.4282H11.2587C12.0706 14.4282 12.7287 13.7701 12.7287 12.9583V6.92199C12.7287 6.8924 12.7047 6.86844 12.6751 6.86844H11.3123C11.2827 6.86844 11.2587 6.8924 11.2587 6.92199V12.9583ZM11.2587 4.13851C12.0706 4.13851 12.7287 4.79663 12.7287 5.60846H6.84888V11.6448C6.84888 11.6743 6.82489 11.6983 6.79534 11.6983H5.43245C5.4029 11.6983 5.37891 11.6743 5.37891 11.6448V5.60846C5.37891 4.79663 6.03705 4.13851 6.84888 4.13851H11.2587Z" fill="white"/>
</svg>
