<svg width="25" height="25" viewBox="0 0 25 25" fill="none" xmlns="http://www.w3.org/2000/svg">
<path d="M8.77758 21.9678H16.5356C17.2178 21.9678 17.8722 21.6968 18.3546 21.2144C18.837 20.7319 19.1081 20.0776 19.1081 19.3953V8.71533H16.5356V19.3953H6.20508C6.20508 20.0776 6.47611 20.7319 6.95855 21.2144C7.44098 21.6968 8.09531 21.9678 8.77758 21.9678Z" fill="black"/>
<path d="M16.5356 3.96777H8.77758C8.09531 3.96777 7.44098 4.2388 6.95855 4.72124C6.47611 5.20368 6.20508 5.858 6.20508 6.54027V17.2203H8.77758V6.54027H19.1081C19.1081 5.858 18.837 5.20368 18.3546 4.72124C17.8722 4.2388 17.2178 3.96777 16.5356 3.96777Z" fill="black"/>
</svg>
