<svg width="21" height="21" viewBox="0 0 21 21" fill="none" xmlns="http://www.w3.org/2000/svg">
<path d="M20.7373 10.9216C20.7373 16.4878 16.2251 21 10.6589 21C5.09281 21 0.580566 16.4878 0.580566 10.9216C0.580566 5.35551 5.09281 0.843264 10.6589 0.843264C16.2251 0.843264 20.7373 5.35551 20.7373 10.9216Z" fill="#31AF40"/>
<path fill-rule="evenodd" clip-rule="evenodd" d="M13.33 15.3732H6.20752C6.20752 16.3566 7.00476 17.1538 7.98817 17.1538H13.33C14.3134 17.1538 15.1107 16.3566 15.1107 15.3732V8.06118C15.1107 8.02535 15.0816 7.99632 15.0458 7.99632H13.3949C13.3591 7.99632 13.33 8.02535 13.33 8.06118V15.3732ZM13.33 4.68945C14.3134 4.68945 15.1107 5.48665 15.1107 6.47005H7.98817V13.7821C7.98817 13.8179 7.9591 13.847 7.9233 13.847H6.27238C6.23659 13.847 6.20752 13.8179 6.20752 13.7821V6.47005C6.20752 5.48665 7.00476 4.68945 7.98817 4.68945H13.33Z" fill="white"/>
</svg>
