<svg width="22" height="22" viewBox="0 0 22 22" fill="none" xmlns="http://www.w3.org/2000/svg">
<path d="M21.2078 11.1974C21.2078 16.9158 16.5721 21.5515 10.8537 21.5515C5.13523 21.5515 0.499512 16.9158 0.499512 11.1974C0.499512 5.47894 5.13523 0.843221 10.8537 0.843221C16.5721 0.843221 21.2078 5.47894 21.2078 11.1974Z" fill="black"/>
<path fill-rule="evenodd" clip-rule="evenodd" d="M13.5982 15.771H6.28076C6.28076 16.7813 7.09982 17.6003 8.11013 17.6003H13.5982C14.6085 17.6003 15.4275 16.7813 15.4275 15.771V8.25891C15.4275 8.22209 15.3977 8.19228 15.3609 8.19228H13.6648C13.628 8.19228 13.5982 8.22209 13.5982 8.25891V15.771ZM13.5982 4.79491C14.6085 4.79491 15.4275 5.61393 15.4275 6.62424H8.11013V14.1363C8.11013 14.1732 8.08027 14.203 8.04349 14.203H6.3474C6.31062 14.203 6.28076 14.1732 6.28076 14.1363V6.62424C6.28076 5.61393 7.09982 4.79491 8.11013 4.79491H13.5982Z" fill="white"/>
</svg>
