<svg width="18" height="18" viewBox="0 0 18 18" fill="none" xmlns="http://www.w3.org/2000/svg">
<path d="M17.3734 9.16316C17.3734 13.7582 13.6484 17.4832 9.0534 17.4832C4.45839 17.4832 0.733398 13.7582 0.733398 9.16316C0.733398 4.56816 4.45839 0.843159 9.0534 0.843159C13.6484 0.843159 17.3734 4.56816 17.3734 9.16316Z" fill="#31AF40"/>
<path fill-rule="evenodd" clip-rule="evenodd" d="M11.2587 12.8382H5.37891C5.37891 13.65 6.03705 14.3081 6.84888 14.3081H11.2587C12.0706 14.3081 12.7287 13.65 12.7287 12.8382V6.80187C12.7287 6.77228 12.7047 6.74832 12.6751 6.74832H11.3123C11.2827 6.74832 11.2587 6.77228 11.2587 6.80187V12.8382ZM11.2587 4.0184C12.0706 4.0184 12.7287 4.67651 12.7287 5.48834H6.84888V11.5246C6.84888 11.5542 6.82489 11.5782 6.79534 11.5782H5.43245C5.4029 11.5782 5.37891 11.5542 5.37891 11.5246V5.48834C5.37891 4.67651 6.03705 4.0184 6.84888 4.0184H11.2587Z" fill="white"/>
</svg>
