<svg width="16" height="17" viewBox="0 0 16 17" fill="none" xmlns="http://www.w3.org/2000/svg">
<path d="M8.12363 5.59409C6.69003 5.59409 5.52011 6.76401 5.52011 8.1976C5.52011 9.6312 6.69003 10.8011 8.12363 10.8011C9.55722 10.8011 10.7271 9.6312 10.7271 8.1976C10.7271 6.76401 9.55722 5.59409 8.12363 5.59409ZM15.9322 8.1976C15.9322 7.11948 15.942 6.05112 15.8814 4.97495C15.8209 3.72495 15.5357 2.61557 14.6217 1.70151C13.7057 0.785493 12.5982 0.50229 11.3482 0.441743C10.2701 0.381196 9.20175 0.390962 8.12558 0.390962C7.04746 0.390962 5.9791 0.381196 4.90293 0.441743C3.65292 0.50229 2.54355 0.787446 1.62949 1.70151C0.713472 2.61752 0.430268 3.72495 0.369722 4.97495C0.309175 6.05307 0.31894 7.12143 0.31894 8.1976C0.31894 9.27377 0.309175 10.3441 0.369722 11.4203C0.430268 12.6703 0.715425 13.7796 1.62949 14.6937C2.5455 15.6097 3.65292 15.8929 4.90293 15.9535C5.98105 16.014 7.04941 16.0042 8.12558 16.0042C9.2037 16.0042 10.2721 16.014 11.3482 15.9535C12.5982 15.8929 13.7076 15.6078 14.6217 14.6937C15.5377 13.7777 15.8209 12.6703 15.8814 11.4203C15.9439 10.3441 15.9322 9.27573 15.9322 8.1976ZM8.12363 12.2035C5.90683 12.2035 4.11777 10.4144 4.11777 8.1976C4.11777 5.98081 5.90683 4.19174 8.12363 4.19174C10.3404 4.19174 12.1295 5.98081 12.1295 8.1976C12.1295 10.4144 10.3404 12.2035 8.12363 12.2035ZM12.2936 4.96323C11.776 4.96323 11.358 4.54526 11.358 4.02768C11.358 3.5101 11.776 3.09213 12.2936 3.09213C12.8111 3.09213 13.2291 3.5101 13.2291 4.02768C13.2293 4.15058 13.2052 4.27231 13.1582 4.38588C13.1112 4.49946 13.0423 4.60265 12.9554 4.68956C12.8685 4.77646 12.7653 4.84537 12.6518 4.89233C12.5382 4.93929 12.4165 4.96338 12.2936 4.96323Z" fill="black"/>
</svg>
