<svg width="17" height="18" viewBox="0 0 17 18" fill="none" xmlns="http://www.w3.org/2000/svg">
<path d="M8.42646 6.51376C6.90146 6.51376 5.65694 7.75827 5.65694 9.28327C5.65694 10.8083 6.90146 12.0528 8.42646 12.0528C9.95145 12.0528 11.196 10.8083 11.196 9.28327C11.196 7.75827 9.95145 6.51376 8.42646 6.51376ZM16.7329 9.28327C16.7329 8.13641 16.7433 6.99993 16.6789 5.85514C16.6145 4.52544 16.3112 3.34534 15.3388 2.373C14.3644 1.39858 13.1864 1.09732 11.8567 1.03291C10.7098 0.968501 9.57332 0.978889 8.42853 0.978889C7.28167 0.978889 6.14519 0.968501 5.00041 1.03291C3.67071 1.09732 2.4906 1.40065 1.51826 2.373C0.543839 3.34741 0.242579 4.52544 0.178172 5.85514C0.113765 7.00201 0.124153 8.13848 0.124153 9.28327C0.124153 10.4281 0.113765 11.5666 0.178172 12.7114C0.242579 14.0411 0.545917 15.2212 1.51826 16.1935C2.49268 17.168 3.67071 17.4692 5.00041 17.5336C6.14727 17.598 7.28375 17.5877 8.42853 17.5877C9.5754 17.5877 10.7119 17.598 11.8567 17.5336C13.1864 17.4692 14.3665 17.1659 15.3388 16.1935C16.3132 15.2191 16.6145 14.0411 16.6789 12.7114C16.7454 11.5666 16.7329 10.4301 16.7329 9.28327ZM8.42646 13.5445C6.06832 13.5445 4.16519 11.6414 4.16519 9.28327C4.16519 6.92513 6.06832 5.022 8.42646 5.022C10.7846 5.022 12.6877 6.92513 12.6877 9.28327C12.6877 11.6414 10.7846 13.5445 8.42646 13.5445ZM12.8622 5.84268C12.3117 5.84268 11.8671 5.39806 11.8671 4.84748C11.8671 4.2969 12.3117 3.85228 12.8622 3.85228C13.4128 3.85228 13.8574 4.2969 13.8574 4.84748C13.8576 4.97822 13.832 5.1077 13.782 5.22852C13.7321 5.34934 13.6588 5.45911 13.5663 5.55156C13.4739 5.644 13.3641 5.7173 13.2433 5.76726C13.1225 5.81721 12.993 5.84284 12.8622 5.84268Z" fill="black"/>
</svg>
