<svg width="22" height="22" viewBox="0 0 22 22" fill="none" xmlns="http://www.w3.org/2000/svg">
<path d="M6.85739 0.915676C5.75571 0.967654 5.00338 1.14347 4.34569 1.40191C3.665 1.66718 3.08807 2.02316 2.51404 2.59926C1.94 3.17537 1.58651 3.75271 1.3231 4.43443C1.06818 5.09357 0.895476 5.84653 0.846812 6.94883C0.798147 8.05113 0.787379 8.40545 0.792763 11.2172C0.798147 14.029 0.810572 14.3815 0.864 15.486C0.916599 16.5875 1.09179 17.3396 1.35023 17.9975C1.61592 18.6782 1.97148 19.2549 2.54779 19.8292C3.1241 20.4034 3.70104 20.7561 4.38441 21.0199C5.04293 21.2744 5.79609 21.448 6.89819 21.4962C8.00029 21.5445 8.35502 21.5556 11.166 21.5502C13.9769 21.5449 14.3308 21.5324 15.4352 21.48C16.5396 21.4277 17.2877 21.2512 17.9459 20.994C18.6265 20.7277 19.2037 20.3728 19.7775 19.7963C20.3513 19.2197 20.7046 18.642 20.9678 17.9598C21.2229 17.3013 21.3963 16.5482 21.4441 15.4469C21.4924 14.3417 21.5037 13.9888 21.4984 11.1775C21.493 8.36611 21.4803 8.01365 21.428 6.90949C21.3756 5.80532 21.2002 5.05547 20.9419 4.39715C20.6758 3.71647 20.3207 3.14016 19.7446 2.56551C19.1685 1.99085 18.5903 1.63777 17.9084 1.37519C17.2494 1.12027 16.4967 0.946532 15.3946 0.898902C14.2925 0.851273 13.9378 0.839055 11.1258 0.84444C8.31381 0.849824 7.96177 0.861835 6.85739 0.915676ZM6.97833 19.6335C5.9688 19.5896 5.42065 19.4219 5.05536 19.2814C4.57161 19.0951 4.22703 18.8698 3.86297 18.5092C3.49892 18.1487 3.27527 17.8029 3.08641 17.3202C2.94456 16.9549 2.77372 16.4073 2.7265 15.3978C2.67515 14.3067 2.66438 13.9791 2.65837 11.2147C2.65237 8.45039 2.66293 8.1232 2.71077 7.03166C2.75384 6.02296 2.92261 5.47419 3.06281 5.10911C3.24918 4.62474 3.47366 4.28077 3.83502 3.91693C4.19638 3.55308 4.54117 3.32902 5.0243 3.14016C5.38918 2.99769 5.9367 2.82829 6.94582 2.78025C8.03777 2.72848 8.36496 2.71813 11.1289 2.71212C13.8928 2.70612 14.2208 2.71647 15.3132 2.76451C16.3219 2.80841 16.8709 2.97553 17.2356 3.11655C17.7195 3.30293 18.0639 3.52679 18.4277 3.88877C18.7916 4.25075 19.0159 4.5943 19.2047 5.07846C19.3474 5.4423 19.5168 5.98962 19.5644 6.99936C19.6164 8.09131 19.6282 8.41871 19.6332 11.1824C19.6381 13.9462 19.6284 14.2744 19.5806 15.3655C19.5365 16.375 19.3691 16.9234 19.2285 17.2891C19.0422 17.7726 18.8175 18.1174 18.4559 18.4811C18.0943 18.8447 17.75 19.0688 17.2666 19.2576C16.9022 19.3999 16.354 19.5697 15.3457 19.6178C14.2538 19.6691 13.9266 19.6799 11.1616 19.6859C8.39664 19.6919 8.07049 19.6807 6.97854 19.6335M15.4192 5.66347C15.4196 5.90923 15.4929 6.14935 15.6298 6.35345C15.7667 6.55756 15.961 6.71649 16.1883 6.81014C16.4155 6.90379 16.6654 6.92796 16.9063 6.87958C17.1473 6.8312 17.3685 6.71246 17.5419 6.53836C17.7154 6.36426 17.8333 6.14264 17.8808 5.90151C17.9283 5.66038 17.9032 5.41058 17.8087 5.18371C17.7143 4.95684 17.5546 4.76308 17.35 4.62695C17.1454 4.49081 16.905 4.41841 16.6592 4.4189C16.3298 4.41956 16.0141 4.55104 15.7815 4.78443C15.549 5.01782 15.4187 5.33401 15.4192 5.66347ZM5.82923 11.2077C5.83503 14.1441 8.21979 16.5192 11.1556 16.5136C14.0914 16.508 16.4681 14.1234 16.4625 11.187C16.4569 8.25055 14.0715 5.8749 11.1353 5.8807C8.19908 5.8865 5.82364 8.27168 5.82923 11.2077ZM7.69422 11.204C7.69287 10.5213 7.89397 9.85364 8.2721 9.2853C8.65022 8.71696 9.18839 8.27352 9.81854 8.01104C10.4487 7.74856 11.1425 7.67884 11.8123 7.81069C12.4821 7.94253 13.0977 8.27003 13.5814 8.75177C14.065 9.23351 14.395 9.84785 14.5295 10.5171C14.664 11.1863 14.597 11.8805 14.337 12.5116C14.077 13.1428 13.6357 13.6827 13.0689 14.0631C12.502 14.4435 11.8351 14.6472 11.1525 14.6486C10.6992 14.6495 10.2502 14.5612 9.8311 14.3886C9.41199 14.216 9.03097 13.9625 8.70983 13.6426C8.38869 13.3228 8.13371 12.9428 7.95944 12.5243C7.78518 12.1059 7.69506 11.6572 7.69422 11.204Z" fill="black"/>
</svg>
