<svg width="18" height="18" viewBox="0 0 18 18" fill="none" xmlns="http://www.w3.org/2000/svg">
<path d="M14.6024 15.2262H12.0776V11.3092C12.0776 10.3752 12.0608 9.1728 10.7644 9.1728C9.44944 9.1728 9.24824 10.1905 9.24824 11.2412V15.2259H6.72344V7.17108H9.14724V8.27185H9.18118C9.42374 7.86099 9.77426 7.523 10.1954 7.29388C10.6165 7.06475 11.0925 6.95307 11.5726 6.97072C14.1316 6.97072 14.6034 8.63817 14.6034 10.8074L14.6024 15.2262ZM3.87463 6.07004C3.58485 6.07009 3.30155 5.98502 3.06057 5.82557C2.8196 5.66612 2.63178 5.43947 2.52083 5.17427C2.40989 4.90907 2.38082 4.61723 2.4373 4.33567C2.49378 4.0541 2.63328 3.79545 2.83815 3.59242C3.04303 3.3894 3.30407 3.25111 3.58828 3.19506C3.87248 3.139 4.16708 3.16769 4.43482 3.2775C4.70257 3.38731 4.93143 3.57331 5.09246 3.81197C5.2535 4.05063 5.33949 4.33125 5.33954 4.61832C5.33958 4.80893 5.30171 4.99767 5.22811 5.17379C5.15451 5.3499 5.04662 5.50993 4.91059 5.64473C4.77456 5.77954 4.61305 5.88648 4.4353 5.95945C4.25755 6.03243 4.06704 6.07001 3.87463 6.07004ZM5.13703 15.2262H2.6096V7.17108H5.13703V15.2262ZM15.8611 0.844412H1.3409C1.01133 0.840727 0.693754 0.966812 0.457978 1.19496C0.222203 1.4231 0.0875183 1.73465 0.0834961 2.06113V16.5051C0.0873806 16.8318 0.221987 17.1435 0.457754 17.3719C0.693521 17.6003 1.01117 17.7266 1.3409 17.7232H15.8611C16.1915 17.7273 16.51 17.6013 16.7467 17.3729C16.9834 17.1445 17.1189 16.8324 17.1235 16.5051V2.06009C17.1188 1.73296 16.9832 1.42106 16.7465 1.19292C16.5098 0.964779 16.1913 0.839055 15.8611 0.843369" fill="black"/>
</svg>
