<svg width="18" height="18" viewBox="0 0 18 18" fill="none" xmlns="http://www.w3.org/2000/svg">
<path d="M15.0031 15.2293H12.4086V11.2063C12.4086 10.2469 12.3913 9.01197 11.0592 9.01197C9.70795 9.01197 9.50119 10.0572 9.50119 11.1364V15.229H6.9067V6.95602H9.39741V8.08662H9.43228C9.68154 7.66463 10.0417 7.31748 10.4745 7.08215C10.9072 6.84681 11.3964 6.73211 11.8897 6.75024C14.5194 6.75024 15.0042 8.46286 15.0042 10.6909L15.0031 15.2293ZM3.97927 5.82516C3.68149 5.82521 3.39037 5.73783 3.14274 5.57406C2.89512 5.4103 2.70211 5.1775 2.58811 4.90512C2.4741 4.63273 2.44422 4.33299 2.50226 4.0438C2.56031 3.75461 2.70366 3.48895 2.91418 3.28042C3.12471 3.0719 3.39296 2.92986 3.68501 2.87229C3.97706 2.81472 4.27979 2.84419 4.55492 2.95697C4.83005 3.06976 5.06523 3.26079 5.23072 3.50592C5.3962 3.75105 5.48456 4.03926 5.48461 4.33411C5.48465 4.52988 5.44573 4.72374 5.3701 4.90463C5.29447 5.08551 5.18361 5.24987 5.04382 5.38833C4.90404 5.52678 4.73807 5.63662 4.55541 5.71157C4.37276 5.78653 4.17699 5.82512 3.97927 5.82516ZM5.27651 15.2293H2.67932V6.95602H5.27651V15.2293ZM16.2966 0.457968H1.3756C1.03694 0.454184 0.710597 0.583684 0.468314 0.818011C0.226032 1.05234 0.0876293 1.37232 0.0834961 1.70764V16.5429C0.0874878 16.8784 0.225809 17.1986 0.468083 17.4332C0.710358 17.6678 1.03677 17.7975 1.3756 17.794H16.2966C16.6361 17.7982 16.9634 17.6688 17.2066 17.4342C17.4499 17.1997 17.5891 16.8791 17.5938 16.5429V1.70657C17.589 1.37058 17.4496 1.05024 17.2064 0.815917C16.9631 0.581596 16.6359 0.452466 16.2966 0.456898" fill="black"/>
</svg>
