<svg width="18" height="18" viewBox="0 0 18 18" fill="none" xmlns="http://www.w3.org/2000/svg">
<path d="M14.6024 15.106H12.0776V11.1891C12.0776 10.2551 12.0608 9.05268 10.7644 9.05268C9.44944 9.05268 9.24824 10.0703 9.24824 11.1211V15.1058H6.72344V7.05096H9.14724V8.15174H9.18118C9.42374 7.74088 9.77426 7.40289 10.1954 7.17376C10.6165 6.94463 11.0925 6.83295 11.5726 6.85061C14.1316 6.85061 14.6034 8.51805 14.6034 10.6873L14.6024 15.106ZM3.87463 5.94992C3.58485 5.94997 3.30155 5.8649 3.06057 5.70545C2.8196 5.54601 2.63178 5.31935 2.52083 5.05415C2.40989 4.78895 2.38082 4.49712 2.4373 4.21555C2.49378 3.93398 2.63328 3.67533 2.83815 3.47231C3.04303 3.26928 3.30407 3.13099 3.58828 3.07494C3.87248 3.01888 4.16708 3.04757 4.43482 3.15739C4.70257 3.2672 4.93143 3.45319 5.09246 3.69185C5.2535 3.93052 5.33949 4.21113 5.33954 4.4982C5.33958 4.68881 5.30171 4.87756 5.22811 5.05367C5.15451 5.22978 5.04662 5.38981 4.91059 5.52462C4.77456 5.65942 4.61305 5.76636 4.4353 5.83934C4.25755 5.91231 4.06704 5.94989 3.87463 5.94992ZM5.13703 15.106H2.6096V7.05096H5.13703V15.106ZM15.8611 0.724295H1.3409C1.01133 0.72061 0.693754 0.846695 0.457978 1.07484C0.222203 1.30299 0.0875183 1.61453 0.0834961 1.94101V16.385C0.0873806 16.7117 0.221987 17.0234 0.457754 17.2518C0.693521 17.4802 1.01117 17.6065 1.3409 17.603H15.8611C16.1915 17.6072 16.51 17.4812 16.7467 17.2528C16.9834 17.0244 17.1189 16.7123 17.1235 16.385V1.93997C17.1188 1.61284 16.9832 1.30094 16.7465 1.0728C16.5098 0.844662 16.1913 0.718938 15.8611 0.723252" fill="#0A66C2"/>
</svg>
