<svg width="18" height="18" viewBox="0 0 18 18" fill="none" xmlns="http://www.w3.org/2000/svg">
<path d="M15.2078 14.5712H12.6824V10.6553C12.6824 9.72153 12.6656 8.51946 11.369 8.51946C10.0537 8.51946 9.85241 9.53685 9.85241 10.5873V14.5709H7.32702V6.51827H9.75138V7.61875H9.78533C10.0279 7.208 10.3785 6.8701 10.7998 6.64104C11.221 6.41197 11.6971 6.30032 12.1773 6.31797C14.7369 6.31797 15.2088 7.98497 15.2088 10.1536L15.2078 14.5712ZM4.47756 5.41753C4.18771 5.41758 3.90434 5.33252 3.66331 5.17312C3.42228 5.01372 3.23442 4.78712 3.12345 4.52199C3.01248 4.25686 2.9834 3.96511 3.03989 3.68361C3.09639 3.40212 3.23592 3.14354 3.44084 2.94057C3.64576 2.7376 3.90686 2.59935 4.19113 2.54331C4.47541 2.48727 4.77007 2.51595 5.03788 2.62573C5.30568 2.73551 5.5346 2.92146 5.69567 3.16006C5.85675 3.39866 5.94275 3.67919 5.9428 3.96619C5.94284 4.15675 5.90496 4.34545 5.83134 4.52151C5.75773 4.69758 5.64982 4.85756 5.51376 4.99233C5.3777 5.1271 5.21615 5.23401 5.03836 5.30697C4.86057 5.37992 4.67001 5.41749 4.47756 5.41753ZM5.74024 14.5712H3.21224V6.51827H5.74024V14.5712ZM16.4668 0.193288H1.94324C1.6136 0.189605 1.29595 0.315656 1.06012 0.543742C0.824286 0.771827 0.68957 1.08329 0.685547 1.40968V15.8499C0.689432 16.1764 0.824069 16.4881 1.05989 16.7164C1.29571 16.9447 1.61343 17.071 1.94324 17.0675H16.4668C16.7973 17.0717 17.1159 16.9457 17.3526 16.7174C17.5894 16.4891 17.7249 16.1771 17.7295 15.8499V1.40864C17.7248 1.0816 17.5891 0.769784 17.3524 0.541704C17.1156 0.313623 16.7971 0.187933 16.4668 0.192246" fill="#0A66C2"/>
</svg>
