<svg width="18" height="18" viewBox="0 0 18 18" fill="none" xmlns="http://www.w3.org/2000/svg">
<path d="M15.3645 14.863H12.8391V10.9471C12.8391 10.0133 12.8223 8.81121 11.5257 8.81121C10.2104 8.81121 10.0091 9.8286 10.0091 10.8791V14.8627H7.48376V6.81002H9.90812V7.9105H9.94206C10.1847 7.49975 10.5353 7.16185 10.9565 6.93278C11.3777 6.70372 11.8538 6.59207 12.3341 6.60972C14.8937 6.60972 15.3656 8.27672 15.3656 10.4454L15.3645 14.863ZM4.63429 5.70927C4.34444 5.70933 4.06108 5.62427 3.82005 5.46487C3.57902 5.30547 3.39115 5.07887 3.28019 4.81374C3.16922 4.54861 3.14013 4.25685 3.19663 3.97536C3.25313 3.69387 3.39266 3.43529 3.59758 3.23232C3.8025 3.02934 4.0636 2.8911 4.34787 2.83506C4.63214 2.77901 4.92681 2.8077 5.19461 2.91748C5.46242 3.02726 5.69133 3.21321 5.85241 3.45181C6.01349 3.69041 6.09949 3.97094 6.09954 4.25794C6.09958 4.4485 6.0617 4.63719 5.98808 4.81326C5.91447 4.98933 5.80656 5.14931 5.6705 5.28408C5.53444 5.41885 5.37289 5.52576 5.1951 5.59872C5.01731 5.67167 4.82675 5.70924 4.63429 5.70927ZM5.89698 14.863H3.36897V6.81002H5.89698V14.863ZM16.6235 0.485036H2.09998C1.77033 0.481353 1.45268 0.607404 1.21685 0.83549C0.981024 1.06358 0.846308 1.37504 0.842285 1.70143V16.1416C0.846171 16.4682 0.980808 16.7798 1.21663 17.0082C1.45245 17.2365 1.77017 17.3628 2.09998 17.3593H16.6235C16.954 17.3634 17.2726 17.2375 17.5094 17.0091C17.7461 16.7808 17.8816 16.4688 17.8862 16.1416V1.70039C17.8815 1.37335 17.7459 1.06153 17.5091 0.833452C17.2724 0.605371 16.9538 0.479681 16.6235 0.483994" fill="#0A66C2"/>
</svg>
