<svg width="18" height="18" viewBox="0 0 18 18" fill="none" xmlns="http://www.w3.org/2000/svg">
<path d="M14.6024 15.1402H12.0776V11.2233C12.0776 10.2892 12.0608 9.08686 10.7644 9.08686C9.44944 9.08686 9.24824 10.1045 9.24824 11.1553V15.14H6.72344V7.08514H9.14724V8.18592H9.18118C9.42374 7.77506 9.77426 7.43707 10.1954 7.20794C10.6165 6.97881 11.0925 6.86713 11.5726 6.88479C14.1316 6.88479 14.6034 8.55223 14.6034 10.7215L14.6024 15.1402ZM3.87463 5.9841C3.58485 5.98415 3.30155 5.89908 3.06057 5.73963C2.8196 5.58019 2.63178 5.35353 2.52083 5.08833C2.40989 4.82313 2.38082 4.5313 2.4373 4.24973C2.49378 3.96816 2.63328 3.70951 2.83815 3.50649C3.04303 3.30346 3.30407 3.16517 3.58828 3.10912C3.87248 3.05306 4.16708 3.08175 4.43482 3.19156C4.70257 3.30138 4.93143 3.48737 5.09246 3.72603C5.2535 3.9647 5.33949 4.24531 5.33954 4.53238C5.33958 4.72299 5.30171 4.91174 5.22811 5.08785C5.15451 5.26396 5.04662 5.42399 4.91059 5.55879C4.77456 5.6936 4.61305 5.80054 4.4353 5.87352C4.25755 5.94649 4.06704 5.98407 3.87463 5.9841ZM5.13703 15.1402H2.6096V7.08514H5.13703V15.1402ZM15.8611 0.758474H1.3409C1.01133 0.75479 0.693754 0.880874 0.457978 1.10902C0.222203 1.33717 0.0875183 1.64871 0.0834961 1.97519V16.4192C0.0873806 16.7458 0.221987 17.0576 0.457754 17.286C0.693521 17.5144 1.01117 17.6407 1.3409 17.6372H15.8611C16.1915 17.6413 16.51 17.5154 16.7467 17.287C16.9834 17.0586 17.1189 16.7465 17.1235 16.4192V1.97415C17.1188 1.64702 16.9832 1.33512 16.7465 1.10698C16.5098 0.878841 16.1913 0.753117 15.8611 0.757432" fill="black"/>
</svg>
