<svg width="19" height="22" viewBox="0 0 19 22" fill="none" xmlns="http://www.w3.org/2000/svg">
<path d="M9.5 11.2102C10.1187 11.2102 10.6486 10.9905 11.0896 10.551C11.5306 10.1116 11.7507 9.58397 11.75 8.96815C11.75 8.35159 11.5295 7.82359 11.0885 7.38415C10.6475 6.94471 10.118 6.72537 9.5 6.72611C8.88125 6.72611 8.35138 6.94583 7.91037 7.38527C7.46937 7.82471 7.24925 8.35234 7.25 8.96815C7.25 9.58471 7.4705 10.1127 7.9115 10.5522C8.3525 10.9916 8.882 11.2109 9.5 11.2102ZM9.5 22C9.35 22 9.2 21.972 9.05 21.9159C8.9 21.8599 8.76875 21.7851 8.65625 21.6917C5.91875 19.2815 3.875 17.044 2.525 14.9791C1.175 12.9141 0.5 10.9852 0.5 9.19236C0.5 6.38981 1.40488 4.15711 3.21463 2.49427C5.02437 0.831422 7.1195 0 9.5 0C11.8812 0 13.9767 0.831422 15.7865 2.49427C17.5962 4.15711 18.5007 6.38981 18.5 9.19236C18.5 10.986 17.825 12.9153 16.475 14.9802C15.125 17.0451 13.0813 19.2823 10.3438 21.6917C10.2312 21.7851 10.1 21.8599 9.95 21.9159C9.8 21.972 9.65 22 9.5 22Z" fill="black"/>
</svg>
