<svg width="22" height="16" viewBox="0 0 22 16" fill="none" xmlns="http://www.w3.org/2000/svg">
<path d="M21.2402 2.77686C20.9951 1.85713 20.2731 1.13289 19.3561 0.887092C17.6943 0.440383 11.0303 0.440383 11.0303 0.440383C11.0303 0.440383 4.36628 0.440383 2.70437 0.887092C1.7875 1.13289 1.06536 1.85713 0.820308 2.77686C0.375 4.44378 0.375 7.92173 0.375 7.92173C0.375 7.92173 0.375 11.3996 0.820308 13.0667C1.06536 13.9863 1.7875 14.7106 2.70437 14.9565C4.36628 15.4031 11.0303 15.4031 11.0303 15.4031C11.0303 15.4031 17.6943 15.4031 19.3561 14.9565C20.2731 14.7106 20.9951 13.9863 21.2402 13.0667C21.6855 11.3996 21.6855 7.92173 21.6855 7.92173C21.6855 7.92173 21.6855 4.44378 21.2402 2.77686Z" fill="#ED1D24"/>
<path d="M8.85059 11.0793L14.4204 7.9218L8.85059 4.76394V11.0793Z" fill="white"/>
</svg>
