<svg width="22" height="16" viewBox="0 0 22 16" fill="none" xmlns="http://www.w3.org/2000/svg">
<path d="M20.6505 3.19787C20.4124 2.30413 19.7108 1.60036 18.8197 1.36151C17.2048 0.92742 10.7291 0.92742 10.7291 0.92742C10.7291 0.92742 4.25349 0.92742 2.63855 1.36151C1.74758 1.60036 1.04585 2.30413 0.807724 3.19787C0.375 4.81769 0.375 8.19735 0.375 8.19735C0.375 8.19735 0.375 11.577 0.807724 13.1969C1.04585 14.0906 1.74758 14.7943 2.63855 15.0333C4.25349 15.4673 10.7291 15.4673 10.7291 15.4673C10.7291 15.4673 17.2048 15.4673 18.8197 15.0333C19.7108 14.7943 20.4124 14.0906 20.6505 13.1969C21.0833 11.577 21.0833 8.19735 21.0833 8.19735C21.0833 8.19735 21.0833 4.81769 20.6505 3.19787Z" fill="black"/>
<path d="M8.61133 11.2659L14.0237 8.19755L8.61133 5.12893V11.2659Z" fill="white"/>
</svg>
