<svg width="17" height="17" viewBox="0 0 17 17" fill="none" xmlns="http://www.w3.org/2000/svg">
<g clip-path="url(#clip0_1_373)">
<path d="M10.9794 8.125H5.26514" stroke="#0F0F0F" stroke-linecap="round" stroke-linejoin="round"/>
<path d="M8.59863 5.74463L10.9796 8.12559L8.59863 10.5065" stroke="#0F0F0F" stroke-linecap="round" stroke-linejoin="round"/>
<path d="M14.7869 8.12492C14.7869 6.35681 14.0845 4.66112 12.8343 3.41088C11.5841 2.16063 9.88839 1.45825 8.12028 1.45825C6.35217 1.45825 4.65648 2.16063 3.40624 3.41088C2.156 4.66112 1.45361 6.35681 1.45361 8.12492C1.45361 9.89302 2.156 11.5887 3.40624 12.839C4.65648 14.0892 6.35217 14.7916 8.12028 14.7916C9.88839 14.7916 11.5841 14.0892 12.8343 12.839C14.0845 11.5887 14.7869 9.89302 14.7869 8.12492Z" stroke="#0F0F0F" stroke-linecap="round" stroke-linejoin="round"/>
</g>
<defs>
<clipPath id="clip0_1_373">
<rect width="16" height="16" fill="white" transform="translate(0.120117 0.125)"/>
</clipPath>
</defs>
</svg>
