<svg width="30" height="30" viewBox="0 0 30 30" fill="none" xmlns="http://www.w3.org/2000/svg">
<path d="M20.2607 14.9H9.54639" stroke="white" stroke-linecap="round" stroke-linejoin="round"/>
<path d="M15.7969 10.4368L20.2612 14.9011L15.7969 19.3653" stroke="white" stroke-linecap="round" stroke-linejoin="round"/>
<path d="M27.3999 14.9C27.3999 11.5848 26.0829 8.4054 23.7387 6.0612C21.3945 3.71697 18.2151 2.40002 14.8999 2.40002C11.5847 2.40002 8.40528 3.71697 6.06108 6.0612C3.71688 8.4054 2.3999 11.5848 2.3999 14.9C2.3999 18.2152 3.71688 21.3946 6.06108 23.7388C8.40528 26.083 11.5847 27.4 14.8999 27.4C18.2151 27.4 21.3945 26.083 23.7387 23.7388C26.0829 21.3946 27.3999 18.2152 27.3999 14.9Z" stroke="white" stroke-linecap="round" stroke-linejoin="round"/>
</svg>
