<svg width="1101" height="1165" viewBox="0 0 1101 1165" fill="none" xmlns="http://www.w3.org/2000/svg">
<g opacity="0.5" filter="url(#filter0_b_359_2622)">
<path d="M444.343 325.517C444.337 307.6 458.248 300.047 474.23 309.288L687.655 432.697C701.428 440.661 711.893 458.425 711.913 473.872L712.416 879.378C712.438 896.488 699.723 904.322 684.394 896.644L470.596 789.563C456.027 782.266 444.479 763.606 444.474 747.351L444.343 325.517Z" fill="url(#paint0_linear_359_2622)"/>
<path d="M445.245 325.933C445.24 308.614 458.687 301.312 474.136 310.245L687.561 433.654C700.875 441.353 710.992 458.525 711.01 473.456L711.514 878.963C711.535 895.503 699.244 903.075 684.425 895.654L470.628 788.572C456.544 781.519 445.382 763.48 445.377 747.768L445.245 325.933Z" stroke="url(#paint1_linear_359_2622)" stroke-width="2" style="mix-blend-mode:overlay"/>
</g>
<g filter="url(#filter1_f_359_2622)">
<ellipse cx="428.135" cy="582.276" rx="272.135" ry="182.276" fill="#4D00AF"/>
</g>
<g filter="url(#filter2_bi_359_2622)">
<rect width="20.9047" height="455.025" transform="matrix(0.866025 -0.5 2.20305e-08 1 669.268 473.626)" fill="url(#paint2_radial_359_2622)"/>
</g>
<g filter="url(#filter3_bi_359_2622)">
<rect width="20.9047" height="362.875" transform="matrix(0.866025 -0.5 0.866025 0.5 355 292.452)" fill="url(#paint3_radial_359_2622)"/>
</g>
<g filter="url(#filter4_bi_359_2622)">
<rect width="363.045" height="455.025" transform="matrix(0.866025 0.5 -2.20305e-08 1 355 292.452)" fill="url(#paint4_radial_359_2622)"/>
<path d="M470.383 557.417L497.901 573.304L526.023 687.095L507.315 676.295L501.884 653.787L466.038 633.092L460.486 649.258L441.658 638.387L470.383 557.417ZM496.574 631.768L484.142 579.854L471.349 617.204L496.574 631.768ZM529.034 688.834L529.034 591.279L567.536 613.508C575.823 618.292 582.864 625.702 588.657 635.736C594.531 645.817 597.467 655.41 597.467 664.515C597.467 670.833 595.898 675.78 592.76 679.357C589.703 682.981 585.64 684.491 580.57 683.887L598.674 729.041L578.157 717.195L561.38 675.455L547.138 667.233L547.138 699.286L529.034 688.834ZM567.536 660.892C570.995 662.889 573.932 663.191 576.346 661.797C578.76 660.404 579.967 657.709 579.967 653.714C579.967 649.719 578.76 645.678 576.346 641.59C573.932 637.409 570.995 634.319 567.536 632.322L547.138 620.545L547.138 649.115L567.536 660.892Z" fill="url(#paint5_linear_359_2622)"/>
</g>
<g filter="url(#filter5_bi_359_2622)">
<rect width="20.9047" height="455.025" transform="matrix(0.866025 -0.5 2.20305e-08 1 552.268 491.626)" fill="url(#paint6_radial_359_2622)"/>
</g>
<g filter="url(#filter6_bi_359_2622)">
<rect width="20.9047" height="362.875" transform="matrix(0.866025 -0.5 0.866025 0.5 238 310.452)" fill="url(#paint7_radial_359_2622)"/>
</g>
<g filter="url(#filter7_bi_359_2622)">
<rect width="363.045" height="455.025" transform="matrix(0.866025 0.5 -2.20305e-08 1 238 310.452)" fill="url(#paint8_radial_359_2622)"/>
<path d="M325.262 559.181L345.176 570.678L366.659 664.889L388.626 595.764L408.299 607.122L380.901 688.859L352.297 672.345L325.262 559.181ZM412.859 707.31L412.859 609.755L451.361 631.984C459.648 636.769 466.689 644.178 472.482 654.213C478.356 664.293 481.293 673.886 481.293 682.991C481.293 689.309 479.724 694.257 476.586 697.834C473.528 701.457 469.465 702.967 464.395 702.363L482.499 747.517L461.982 735.671L445.205 693.931L430.963 685.709L430.963 717.763L412.859 707.31ZM451.361 679.368C454.82 681.365 457.757 681.667 460.171 680.274C462.585 678.88 463.792 676.186 463.792 672.191C463.792 668.195 462.585 664.154 460.171 660.066C457.757 655.885 454.82 652.796 451.361 650.798L430.963 639.022L430.963 667.592L451.361 679.368Z" fill="url(#paint9_linear_359_2622)"/>
</g>
<g opacity="0.2" filter="url(#filter8_b_359_2622)">
<path d="M263.343 385.517C263.337 367.6 277.248 360.047 293.23 369.288L506.655 492.697C520.428 500.661 530.893 518.425 530.913 533.872L531.416 939.378C531.438 956.488 518.723 964.322 503.394 956.644L289.596 849.563C275.027 842.266 263.479 823.606 263.474 807.351L263.343 385.517Z" fill="url(#paint10_linear_359_2622)"/>
<path d="M264.245 385.933C264.24 368.614 277.687 361.312 293.136 370.245L506.561 493.654C519.875 501.353 529.992 518.525 530.01 533.456L530.514 938.963C530.535 955.503 518.244 963.075 503.425 955.654L289.628 848.572C275.544 841.519 264.382 823.48 264.377 807.768L264.245 385.933Z" stroke="url(#paint11_linear_359_2622)" stroke-width="2" style="mix-blend-mode:overlay"/>
</g>
<defs>
<filter id="filter0_b_359_2622" x="444.043" y="305.028" width="268.674" height="594.869" filterUnits="userSpaceOnUse" color-interpolation-filters="sRGB">
<feFlood flood-opacity="0" result="BackgroundImageFix"/>
<feGaussianBlur in="BackgroundImageFix" stdDeviation="0.15"/>
<feComposite in2="SourceAlpha" operator="in" result="effect1_backgroundBlur_359_2622"/>
<feBlend mode="normal" in="SourceGraphic" in2="effect1_backgroundBlur_359_2622" result="shape"/>
</filter>
<filter id="filter1_f_359_2622" x="-244" y="0" width="1344.27" height="1164.55" filterUnits="userSpaceOnUse" color-interpolation-filters="sRGB">
<feFlood flood-opacity="0" result="BackgroundImageFix"/>
<feBlend mode="normal" in="SourceGraphic" in2="BackgroundImageFix" result="shape"/>
<feGaussianBlur stdDeviation="200" result="effect1_foregroundBlur_359_2622"/>
</filter>
<filter id="filter2_bi_359_2622" x="640.001" y="433.907" width="76.6371" height="524.011" filterUnits="userSpaceOnUse" color-interpolation-filters="sRGB">
<feFlood flood-opacity="0" result="BackgroundImageFix"/>
<feGaussianBlur in="BackgroundImageFix" stdDeviation="14.6333"/>
<feComposite in2="SourceAlpha" operator="in" result="effect1_backgroundBlur_359_2622"/>
<feBlend mode="normal" in="SourceGraphic" in2="effect1_backgroundBlur_359_2622" result="shape"/>
<feColorMatrix in="SourceAlpha" type="matrix" values="0 0 0 0 0 0 0 0 0 0 0 0 0 0 0 0 0 0 127 0" result="hardAlpha"/>
<feOffset dx="-3.48411" dy="-3.48411"/>
<feGaussianBlur stdDeviation="87.1029"/>
<feComposite in2="hardAlpha" operator="arithmetic" k2="-1" k3="1"/>
<feColorMatrix type="matrix" values="0 0 0 0 1 0 0 0 0 1 0 0 0 0 1 0 0 0 0.02 0"/>
<feBlend mode="normal" in2="shape" result="effect2_innerShadow_359_2622"/>
</filter>
<filter id="filter3_bi_359_2622" x="325.733" y="252.733" width="390.896" height="250.423" filterUnits="userSpaceOnUse" color-interpolation-filters="sRGB">
<feFlood flood-opacity="0" result="BackgroundImageFix"/>
<feGaussianBlur in="BackgroundImageFix" stdDeviation="14.6333"/>
<feComposite in2="SourceAlpha" operator="in" result="effect1_backgroundBlur_359_2622"/>
<feBlend mode="normal" in="SourceGraphic" in2="effect1_backgroundBlur_359_2622" result="shape"/>
<feColorMatrix in="SourceAlpha" type="matrix" values="0 0 0 0 0 0 0 0 0 0 0 0 0 0 0 0 0 0 127 0" result="hardAlpha"/>
<feOffset dx="-3.48411" dy="-3.48411"/>
<feGaussianBlur stdDeviation="87.1029"/>
<feComposite in2="hardAlpha" operator="arithmetic" k2="-1" k3="1"/>
<feColorMatrix type="matrix" values="0 0 0 0 1 0 0 0 0 1 0 0 0 0 1 0 0 0 0.02 0"/>
<feBlend mode="normal" in2="shape" result="effect2_innerShadow_359_2622"/>
</filter>
<filter id="filter4_bi_359_2622" x="325.733" y="263.186" width="372.939" height="695.081" filterUnits="userSpaceOnUse" color-interpolation-filters="sRGB">
<feFlood flood-opacity="0" result="BackgroundImageFix"/>
<feGaussianBlur in="BackgroundImageFix" stdDeviation="14.6333"/>
<feComposite in2="SourceAlpha" operator="in" result="effect1_backgroundBlur_359_2622"/>
<feBlend mode="normal" in="SourceGraphic" in2="effect1_backgroundBlur_359_2622" result="shape"/>
<feColorMatrix in="SourceAlpha" type="matrix" values="0 0 0 0 0 0 0 0 0 0 0 0 0 0 0 0 0 0 127 0" result="hardAlpha"/>
<feOffset dx="-3.48411" dy="-3.48411"/>
<feGaussianBlur stdDeviation="87.1029"/>
<feComposite in2="hardAlpha" operator="arithmetic" k2="-1" k3="1"/>
<feColorMatrix type="matrix" values="0 0 0 0 1 0 0 0 0 1 0 0 0 0 1 0 0 0 0.02 0"/>
<feBlend mode="normal" in2="shape" result="effect2_innerShadow_359_2622"/>
</filter>
<filter id="filter5_bi_359_2622" x="523.001" y="451.907" width="76.6371" height="524.011" filterUnits="userSpaceOnUse" color-interpolation-filters="sRGB">
<feFlood flood-opacity="0" result="BackgroundImageFix"/>
<feGaussianBlur in="BackgroundImageFix" stdDeviation="14.6333"/>
<feComposite in2="SourceAlpha" operator="in" result="effect1_backgroundBlur_359_2622"/>
<feBlend mode="normal" in="SourceGraphic" in2="effect1_backgroundBlur_359_2622" result="shape"/>
<feColorMatrix in="SourceAlpha" type="matrix" values="0 0 0 0 0 0 0 0 0 0 0 0 0 0 0 0 0 0 127 0" result="hardAlpha"/>
<feOffset dx="-3.48411" dy="-3.48411"/>
<feGaussianBlur stdDeviation="87.1029"/>
<feComposite in2="hardAlpha" operator="arithmetic" k2="-1" k3="1"/>
<feColorMatrix type="matrix" values="0 0 0 0 1 0 0 0 0 1 0 0 0 0 1 0 0 0 0.02 0"/>
<feBlend mode="normal" in2="shape" result="effect2_innerShadow_359_2622"/>
</filter>
<filter id="filter6_bi_359_2622" x="208.733" y="270.733" width="390.896" height="250.423" filterUnits="userSpaceOnUse" color-interpolation-filters="sRGB">
<feFlood flood-opacity="0" result="BackgroundImageFix"/>
<feGaussianBlur in="BackgroundImageFix" stdDeviation="14.6333"/>
<feComposite in2="SourceAlpha" operator="in" result="effect1_backgroundBlur_359_2622"/>
<feBlend mode="normal" in="SourceGraphic" in2="effect1_backgroundBlur_359_2622" result="shape"/>
<feColorMatrix in="SourceAlpha" type="matrix" values="0 0 0 0 0 0 0 0 0 0 0 0 0 0 0 0 0 0 127 0" result="hardAlpha"/>
<feOffset dx="-3.48411" dy="-3.48411"/>
<feGaussianBlur stdDeviation="87.1029"/>
<feComposite in2="hardAlpha" operator="arithmetic" k2="-1" k3="1"/>
<feColorMatrix type="matrix" values="0 0 0 0 1 0 0 0 0 1 0 0 0 0 1 0 0 0 0.02 0"/>
<feBlend mode="normal" in2="shape" result="effect2_innerShadow_359_2622"/>
</filter>
<filter id="filter7_bi_359_2622" x="216" y="288.452" width="358.406" height="680.548" filterUnits="userSpaceOnUse" color-interpolation-filters="sRGB">
<feFlood flood-opacity="0" result="BackgroundImageFix"/>
<feGaussianBlur in="BackgroundImageFix" stdDeviation="11"/>
<feComposite in2="SourceAlpha" operator="in" result="effect1_backgroundBlur_359_2622"/>
<feBlend mode="normal" in="SourceGraphic" in2="effect1_backgroundBlur_359_2622" result="shape"/>
<feColorMatrix in="SourceAlpha" type="matrix" values="0 0 0 0 0 0 0 0 0 0 0 0 0 0 0 0 0 0 127 0" result="hardAlpha"/>
<feOffset dx="-3.48411" dy="-3.48411"/>
<feGaussianBlur stdDeviation="87.1029"/>
<feComposite in2="hardAlpha" operator="arithmetic" k2="-1" k3="1"/>
<feColorMatrix type="matrix" values="0 0 0 0 1 0 0 0 0 1 0 0 0 0 1 0 0 0 0.02 0"/>
<feBlend mode="normal" in2="shape" result="effect2_innerShadow_359_2622"/>
</filter>
<filter id="filter8_b_359_2622" x="263.043" y="365.028" width="268.674" height="594.869" filterUnits="userSpaceOnUse" color-interpolation-filters="sRGB">
<feFlood flood-opacity="0" result="BackgroundImageFix"/>
<feGaussianBlur in="BackgroundImageFix" stdDeviation="0.15"/>
<feComposite in2="SourceAlpha" operator="in" result="effect1_backgroundBlur_359_2622"/>
<feBlend mode="normal" in="SourceGraphic" in2="effect1_backgroundBlur_359_2622" result="shape"/>
</filter>
<linearGradient id="paint0_linear_359_2622" x1="343.849" y1="510.038" x2="591.421" y2="791.019" gradientUnits="userSpaceOnUse">
<stop offset="0.152506" stop-color="white" stop-opacity="0.3"/>
<stop offset="0.638347" stop-color="white" stop-opacity="0.1"/>
</linearGradient>
<linearGradient id="paint1_linear_359_2622" x1="430.556" y1="293.282" x2="493.375" y2="706.892" gradientUnits="userSpaceOnUse">
<stop offset="0.0693138" stop-color="white" stop-opacity="0.54"/>
<stop offset="0.124911" stop-color="#040202" stop-opacity="0.37"/>
<stop offset="0.250348" stop-color="white" stop-opacity="0"/>
<stop offset="0.26442" stop-color="white" stop-opacity="0"/>
<stop offset="0.49646" stop-color="white"/>
<stop offset="0.730358" stop-color="white" stop-opacity="0"/>
<stop offset="0.903868" stop-color="white" stop-opacity="0.72"/>
</linearGradient>
<radialGradient id="paint2_radial_359_2622" cx="0" cy="0" r="1" gradientUnits="userSpaceOnUse" gradientTransform="rotate(87.3696) scale(455.505 29.0202)">
<stop stop-color="white" stop-opacity="0.4"/>
<stop offset="1" stop-color="white" stop-opacity="0"/>
</radialGradient>
<radialGradient id="paint3_radial_359_2622" cx="0" cy="0" r="1" gradientUnits="userSpaceOnUse" gradientTransform="rotate(86.7029) scale(363.477 29.0027)">
<stop stop-color="white" stop-opacity="0.4"/>
<stop offset="1" stop-color="white" stop-opacity="0"/>
</radialGradient>
<radialGradient id="paint4_radial_359_2622" cx="0" cy="0" r="1" gradientUnits="userSpaceOnUse" gradientTransform="rotate(51.4152) scale(582.108 394.372)">
<stop stop-color="white" stop-opacity="0.4"/>
<stop offset="1" stop-color="white" stop-opacity="0"/>
</radialGradient>
<linearGradient id="paint5_linear_359_2622" x1="437.766" y1="632.309" x2="569.331" y2="632.575" gradientUnits="userSpaceOnUse">
<stop stop-color="#2340FF"/>
<stop offset="1" stop-color="#0ABFBC"/>
</linearGradient>
<radialGradient id="paint6_radial_359_2622" cx="0" cy="0" r="1" gradientUnits="userSpaceOnUse" gradientTransform="rotate(87.3696) scale(455.505 29.0202)">
<stop stop-color="white" stop-opacity="0.4"/>
<stop offset="1" stop-color="white" stop-opacity="0"/>
</radialGradient>
<radialGradient id="paint7_radial_359_2622" cx="0" cy="0" r="1" gradientUnits="userSpaceOnUse" gradientTransform="rotate(86.7029) scale(363.477 29.0027)">
<stop stop-color="white" stop-opacity="0.4"/>
<stop offset="1" stop-color="white" stop-opacity="0"/>
</radialGradient>
<radialGradient id="paint8_radial_359_2622" cx="0" cy="0" r="1" gradientUnits="userSpaceOnUse" gradientTransform="rotate(51.4152) scale(582.108 394.372)">
<stop stop-color="white" stop-opacity="0.4"/>
<stop offset="1" stop-color="white" stop-opacity="0"/>
</radialGradient>
<linearGradient id="paint9_linear_359_2622" x1="320.766" y1="650.31" x2="453.021" y2="650.578" gradientUnits="userSpaceOnUse">
<stop stop-color="#2340FF"/>
<stop offset="1" stop-color="#0ABFBC"/>
</linearGradient>
<linearGradient id="paint10_linear_359_2622" x1="162.849" y1="570.038" x2="410.421" y2="851.019" gradientUnits="userSpaceOnUse">
<stop offset="0.152506" stop-color="white" stop-opacity="0.3"/>
<stop offset="0.638347" stop-color="white" stop-opacity="0.1"/>
</linearGradient>
<linearGradient id="paint11_linear_359_2622" x1="249.556" y1="353.282" x2="312.375" y2="766.892" gradientUnits="userSpaceOnUse">
<stop offset="0.0693138" stop-color="white" stop-opacity="0.54"/>
<stop offset="0.124911" stop-color="#040202" stop-opacity="0.37"/>
<stop offset="0.250348" stop-color="white" stop-opacity="0"/>
<stop offset="0.26442" stop-color="white" stop-opacity="0"/>
<stop offset="0.49646" stop-color="white"/>
<stop offset="0.730358" stop-color="white" stop-opacity="0"/>
<stop offset="0.903868" stop-color="white" stop-opacity="0.72"/>
</linearGradient>
</defs>
</svg>
