<svg width="80" height="81" viewBox="0 0 80 81" fill="none" xmlns="http://www.w3.org/2000/svg">
<g opacity="0.5" clip-path="url(#clip0_1_623)">
<g filter="url(#filter0_d_1_623)">
<path d="M73.3334 40.9417C73.3334 32.1012 69.8214 23.6227 63.5703 17.3715C57.3191 11.1203 48.8406 7.6084 40.0001 7.6084C31.1595 7.6084 22.6811 11.1203 16.4299 17.3715C10.1787 23.6227 6.66675 32.1012 6.66675 40.9417C6.66675 49.7823 10.1787 58.2607 16.4299 64.5119C22.6811 70.7631 31.1595 74.2751 40.0001 74.2751C48.8406 74.2751 57.3191 70.7631 63.5703 64.5119C69.8214 58.2607 73.3334 49.7823 73.3334 40.9417Z" stroke="white" stroke-linecap="round" stroke-linejoin="round" shape-rendering="crispEdges"/>
</g>
<path d="M49 40.4399H31" stroke="white" stroke-linecap="round" stroke-linejoin="round"/>
<path d="M41.5 32.9417L49 40.4417L41.5 47.9417" stroke="white" stroke-linecap="round" stroke-linejoin="round"/>
</g>
<defs>
<filter id="filter0_d_1_623" x="2.16675" y="7.1084" width="75.6667" height="75.6667" filterUnits="userSpaceOnUse" color-interpolation-filters="sRGB">
<feFlood flood-opacity="0" result="BackgroundImageFix"/>
<feColorMatrix in="SourceAlpha" type="matrix" values="0 0 0 0 0 0 0 0 0 0 0 0 0 0 0 0 0 0 127 0" result="hardAlpha"/>
<feOffset dy="4"/>
<feGaussianBlur stdDeviation="2"/>
<feComposite in2="hardAlpha" operator="out"/>
<feColorMatrix type="matrix" values="0 0 0 0 0 0 0 0 0 0 0 0 0 0 0 0 0 0 0.25 0"/>
<feBlend mode="normal" in2="BackgroundImageFix" result="effect1_dropShadow_1_623"/>
<feBlend mode="normal" in="SourceGraphic" in2="effect1_dropShadow_1_623" result="shape"/>
</filter>
<clipPath id="clip0_1_623">
<rect width="80" height="80" fill="white" transform="translate(0 0.94165)"/>
</clipPath>
</defs>
</svg>
