<svg width="25" height="26" viewBox="0 0 25 26" fill="none" xmlns="http://www.w3.org/2000/svg">
<path d="M16.9676 13.4708H8.03906" stroke="black" stroke-linecap="round" stroke-linejoin="round"/>
<path d="M13.2461 9.75146L16.9663 13.4717L13.2461 17.1919" stroke="black" stroke-linecap="round" stroke-linejoin="round"/>
<path d="M22.9154 13.4709C22.9154 10.7082 21.8179 8.05868 19.8644 6.10518C17.9109 4.15166 15.2614 3.0542 12.4987 3.0542C9.73603 3.0542 7.08651 4.15166 5.13301 6.10518C3.17951 8.05868 2.08203 10.7082 2.08203 13.4709C2.08203 16.2335 3.17951 18.8831 5.13301 20.8366C7.08651 22.79 9.73603 23.8875 12.4987 23.8875C15.2614 23.8875 17.9109 22.79 19.8644 20.8366C21.8179 18.8831 22.9154 16.2335 22.9154 13.4709Z" stroke="black" stroke-linecap="round" stroke-linejoin="round"/>
</svg>
