<svg width="26" height="26" viewBox="0 0 26 26" fill="none" xmlns="http://www.w3.org/2000/svg">
<path d="M24.4111 12.2078C24.4154 13.8576 24.03 15.4851 23.2861 16.9578C22.4041 18.7225 21.0484 20.2068 19.3704 21.2444C17.6925 22.282 15.7589 22.832 13.7861 22.8328C12.1363 22.8371 10.5088 22.4516 9.03613 21.7078L1.91113 24.0828L4.28613 16.9578C3.5423 15.4851 3.15683 13.8576 3.16113 12.2078C3.1619 10.235 3.7119 8.30136 4.74953 6.62349C5.78717 4.94561 7.27145 3.58976 9.03613 2.7078C10.5088 1.96396 12.1363 1.5785 13.7861 1.5828H14.4111C17.0165 1.72654 19.4774 2.82625 21.3225 4.67137C23.1676 6.5165 24.2674 8.97736 24.4111 11.5828V12.2078Z" stroke="black" stroke-width="2" stroke-linecap="round" stroke-linejoin="round"/>
</svg>
