<svg width="29" height="19" viewBox="0 0 29 19" fill="none" xmlns="http://www.w3.org/2000/svg">
<path d="M0.574928 2.14382C0.36688 1.93577 0.25 1.6536 0.25 1.35938C0.25 1.06515 0.36688 0.782976 0.574928 0.574928C0.782977 0.36688 1.06515 0.25 1.35938 0.25H27.6406C27.9349 0.25 28.217 0.36688 28.4251 0.574928C28.6331 0.782977 28.75 1.06515 28.75 1.35938C28.75 1.6536 28.6331 1.93577 28.4251 2.14382C28.217 2.35187 27.9349 2.46875 27.6406 2.46875H1.35938C1.06515 2.46875 0.782977 2.35187 0.574928 2.14382ZM0.574928 9.84695C0.36688 9.6389 0.25 9.35672 0.25 9.0625C0.25 8.76828 0.36688 8.4861 0.574928 8.27805C0.782977 8.07001 1.06515 7.95312 1.35938 7.95312H27.6406C27.9349 7.95312 28.217 8.07001 28.4251 8.27805C28.6331 8.4861 28.75 8.76828 28.75 9.0625C28.75 9.35672 28.6331 9.6389 28.4251 9.84695C28.217 10.055 27.9349 10.1719 27.6406 10.1719H1.35938C1.06515 10.1719 0.782977 10.055 0.574928 9.84695ZM0.574928 15.9812C0.782977 15.7731 1.06515 15.6562 1.35938 15.6562H27.6406C27.9349 15.6562 28.217 15.7731 28.4251 15.9812C28.6331 16.1892 28.75 16.4714 28.75 16.7656C28.75 17.0598 28.6331 17.342 28.4251 17.5501C28.217 17.7581 27.9348 17.875 27.6406 17.875H1.35938C1.06515 17.875 0.782977 17.7581 0.574928 17.5501C0.36688 17.342 0.25 17.0599 0.25 16.7656C0.25 16.4714 0.36688 16.1892 0.574928 15.9812Z" fill="white" stroke="white" stroke-width="0.5"/>
</svg>
