<svg width="28" height="28" viewBox="0 0 28 28" fill="none" xmlns="http://www.w3.org/2000/svg">
<path d="M26.1824 20.2751V24.0251C26.1838 24.3732 26.1125 24.7179 25.973 25.0367C25.8335 25.3557 25.629 25.6421 25.3725 25.8775C25.116 26.1127 24.8132 26.292 24.4833 26.4035C24.1535 26.515 23.8042 26.5565 23.4574 26.5251C19.6109 26.1071 15.9162 24.7927 12.6699 22.6876C9.6497 20.7685 7.08907 18.2079 5.16991 15.1876C3.05739 11.9266 1.74271 8.21386 1.33241 4.35012C1.30117 4.00445 1.34225 3.65607 1.45304 3.32715C1.56381 2.99823 1.74187 2.69598 1.97586 2.43965C2.20986 2.18331 2.49466 1.97851 2.81215 1.83827C3.12962 1.69803 3.47284 1.62545 3.81991 1.62512H7.56991C8.17654 1.61915 8.76465 1.83397 9.22461 2.22953C9.68457 2.6251 9.98501 3.17442 10.0699 3.77512C10.2282 4.9752 10.5217 6.15352 10.9449 7.28762C11.1131 7.73502 11.1495 8.22126 11.0498 8.68872C10.9501 9.15617 10.7185 9.58526 10.3824 9.92512L8.79491 11.5126C10.5743 14.642 13.1655 17.2331 16.2949 19.0126L17.8824 17.4251C18.2223 17.089 18.6514 16.8574 19.1188 16.7577C19.5863 16.658 20.0725 16.6945 20.5199 16.8626C21.654 17.2857 22.8323 17.5794 24.0324 17.7376C24.6397 17.8232 25.1942 18.1291 25.5905 18.597C25.987 19.0649 26.1977 19.6621 26.1824 20.2751Z" stroke="black" stroke-width="2" stroke-linecap="round" stroke-linejoin="round"/>
</svg>
