<svg width="11" height="19" viewBox="0 0 11 19" fill="none" xmlns="http://www.w3.org/2000/svg">
<path d="M0.381062 18.6245C0.127021 18.3742 0 18.0778 0 17.7353C0 17.3936 0.127021 17.0975 0.381062 16.8472L7.82448 9.51252L0.355658 2.15283C0.118553 1.91919 0 1.62714 0 1.27668C0 0.926219 0.127021 0.625823 0.381062 0.375494C0.635104 0.125165 0.935889 0 1.28342 0C1.63027 0 1.93072 0.125165 2.18476 0.375494L10.7206 8.81159C10.8222 8.91173 10.8943 9.0202 10.937 9.13702C10.979 9.25384 11 9.37901 11 9.51252C11 9.64603 10.979 9.77119 10.937 9.88801C10.8943 10.0048 10.8222 10.1133 10.7206 10.2134L2.15935 18.6495C1.92225 18.8832 1.63027 19 1.28342 19C0.935889 19 0.635104 18.8748 0.381062 18.6245Z" fill="url(#paint0_linear_1300_1197)"/>
<defs>
<linearGradient id="paint0_linear_1300_1197" x1="9.65358" y1="9.01186" x2="1.01617" y2="9.01186" gradientUnits="userSpaceOnUse">
<stop stop-color="white"/>
<stop offset="1" stop-color="white" stop-opacity="0"/>
</linearGradient>
</defs>
</svg>
