<svg width="81" height="80" viewBox="0 0 81 80" fill="none" xmlns="http://www.w3.org/2000/svg">
<path d="M63.5 23.3334C66.5148 28.3373 67.8031 34.1928 67.1667 40V43.3334C67.1628 46.8429 68.0824 50.2917 69.8333 53.3334" stroke="#212121" stroke-width="2" stroke-linecap="round" stroke-linejoin="round"/>
<path d="M27.1667 36.6667C27.1667 29.3029 33.1362 23.3334 40.5 23.3334C47.8638 23.3334 53.8334 29.3029 53.8334 36.6667V40C53.8334 47.2124 56.1726 54.2302 60.5 60" stroke="#212121" stroke-width="2" stroke-linecap="round" stroke-linejoin="round"/>
<path d="M40.5 36.6667V43.3334C40.4894 52.8647 43.3975 62.1707 48.8334 70" stroke="#212121" stroke-width="2" stroke-linecap="round" stroke-linejoin="round"/>
<path d="M27.1667 50C27.9824 56.9661 30.0131 63.7353 33.1667 70" stroke="#212121" stroke-width="2" stroke-linecap="round" stroke-linejoin="round"/>
<path d="M16.8333 63.3333C14.5842 55.7676 13.5711 47.8885 13.8333 40V36.6666C13.8073 27.1266 18.8797 18.2994 27.1351 13.5181C35.3906 8.73678 45.5714 8.72988 53.8333 13.5" stroke="#212121" stroke-width="2" stroke-linecap="round" stroke-linejoin="round"/>
</svg>
