<svg width="36" height="36" viewBox="0 0 36 36" fill="none" xmlns="http://www.w3.org/2000/svg">
<path d="M34.7967 1.22726C34.55 0.980054 34.2569 0.783927 33.9344 0.65011C33.6118 0.516292 33.2659 0.447412 32.9167 0.447412C32.5674 0.447412 32.2216 0.516292 31.899 0.65011C31.5764 0.783927 31.2834 0.980054 31.0367 1.22726L17.9967 14.2406L4.95669 1.2006C4.70981 0.953711 4.41671 0.757871 4.09414 0.624257C3.77157 0.490644 3.42584 0.421875 3.07669 0.421875C2.72754 0.421875 2.38181 0.490644 2.05924 0.624257C1.73667 0.757871 1.44357 0.953711 1.19669 1.2006C0.949804 1.44748 0.753964 1.74058 0.620351 2.06315C0.486738 2.38572 0.417969 2.73145 0.417969 3.0806C0.417969 3.42975 0.486738 3.77547 0.620351 4.09805C0.753964 4.42062 0.949804 4.71371 1.19669 4.9606L14.2367 18.0006L1.19669 31.0406C0.949804 31.2875 0.753964 31.5806 0.620351 31.9031C0.486738 32.2257 0.417969 32.5714 0.417969 32.9206C0.417969 33.2697 0.486738 33.6155 0.620351 33.938C0.753964 34.2606 0.949804 34.5537 1.19669 34.8006C1.44357 35.0475 1.73667 35.2433 2.05924 35.3769C2.38181 35.5105 2.72754 35.5793 3.07669 35.5793C3.42584 35.5793 3.77157 35.5105 4.09414 35.3769C4.41671 35.2433 4.70981 35.0475 4.95669 34.8006L17.9967 21.7606L31.0367 34.8006C31.2836 35.0475 31.5767 35.2433 31.8992 35.3769C32.2218 35.5105 32.5675 35.5793 32.9167 35.5793C33.2658 35.5793 33.6116 35.5105 33.9341 35.3769C34.2567 35.2433 34.5498 35.0475 34.7967 34.8006C35.0436 34.5537 35.2394 34.2606 35.373 33.938C35.5066 33.6155 35.5754 33.2697 35.5754 32.9206C35.5754 32.5714 35.5066 32.2257 35.373 31.9031C35.2394 31.5806 35.0436 31.2875 34.7967 31.0406L21.7567 18.0006L34.7967 4.9606C35.81 3.94726 35.81 2.2406 34.7967 1.22726Z" fill="black"/>
</svg>
