<svg width="11" height="19" viewBox="0 0 11 19" fill="none" xmlns="http://www.w3.org/2000/svg">
<path d="M10.4492 0.374609C10.6992 0.624609 10.8242 0.920609 10.8242 1.26261C10.8242 1.60394 10.6992 1.89961 10.4492 2.14961L3.12422 9.47461L10.4742 16.8246C10.7076 17.0579 10.8242 17.3496 10.8242 17.6996C10.8242 18.0496 10.6992 18.3496 10.4492 18.5996C10.1992 18.8496 9.90322 18.9746 9.56122 18.9746C9.21989 18.9746 8.92422 18.8496 8.67422 18.5996L0.274217 10.1746C0.174216 10.0746 0.103217 9.96628 0.0612175 9.84961C0.0198843 9.73294 -0.000782832 9.60794 -0.000782843 9.47461C-0.000782855 9.34128 0.0198842 9.21628 0.0612174 9.09961C0.103217 8.98294 0.174216 8.87461 0.274217 8.77461L8.69922 0.34961C8.93255 0.116276 9.21988 -0.000390866 9.56122 -0.000390896C9.90322 -0.000390926 10.1992 0.124609 10.4492 0.374609Z" fill="url(#paint0_linear_1300_1198)"/>
<defs>
<linearGradient id="paint0_linear_1300_1198" x1="1.32422" y1="9.97461" x2="9.82422" y2="9.97461" gradientUnits="userSpaceOnUse">
<stop stop-color="white"/>
<stop offset="1" stop-color="white" stop-opacity="0"/>
</linearGradient>
</defs>
</svg>
